<?xml version="1.0" encoding="utf-8"?>
<!-- Generator: Adobe Illustrator 25.0.0, SVG Export Plug-In . SVG Version: 6.00 Build 0)  -->
<svg version="1.1" id="Layer_1" xmlns="http://www.w3.org/2000/svg" xmlns:xlink="http://www.w3.org/1999/xlink" x="0px" y="0px"
	 width="198px" height="189px" viewBox="0 0 198 189" style="enable-background:new 0 0 198 189;" xml:space="preserve">
<polygon points="117,126 117,180 126,172.8 126,126 196.88,15.75 198,0 " style="fill: #68c4fa;" />
<polygon points="135,126 135,169.2 144,162 144,126 196.92,42.84 198,27 " style="fill: #72b1f2;" />
<polygon points="0,0 1.59,14.82 81,126 81,172.8 90,180 90,126 " style="fill: #72e6ff;"/>
<polygon points="0,27 1.67,41.67 63,126 63,162 72,169.2 72,126 " style="fill: #87f6ff;"/>
<path d="M93.83,24.52"/>
<polygon points="99,90 99,186 103.5,189 108,186 108,99 103.43,90 " style="fill: #67d5ff;" />
</svg>
